<svg width="24" height="24" viewBox="0 0 24 24" fill="none" xmlns="http://www.w3.org/2000/svg">
  <path
    fill-rule="evenodd"
    clip-rule="evenodd"
    d="M12 0C9.23858 0 7 2.23858 7 5V6H3.14793L1.84024 23H22.1597L20.8521 6H17V5C17 2.23858 14.7614 0 12 0ZM15 8V10C15 10.5523 15.4477 11 16 11C16.5523 11 17 10.5523 17 10V8H19L20 21H3.99999L4.99999 8H7V10C7 10.5523 7.44772 11 8 11C8.55228 11 9 10.5523 9 10V8H15ZM15 6V5C15 3.34315 13.6569 2 12 2C10.3431 2 9 3.34315 9 5V6H15Z"
    fill="#231F20"
  />
</svg>
