<svg width="100px" class="svg-icon" style="width: 1em; height: 1em;vertical-align: middle;fill: currentColor;overflow: hidden;" viewBox="0 0 1024 1024" version="1.1" xmlns="http://www.w3.org/2000/svg"><path d="M731.548 74.6c-135.412 0-245.58 110.166-245.58 245.58 0 17.28 1.79 34.524 5.326 51.252l2.874 13.586 53.702-52.894a43.398 43.398 0 0 1 30.624-12.552c11.782 0 22.83 4.626 31.11 13.03 16.886 17.142 16.668 44.836-0.48 61.728l-74.252 73.11 4.248 5.35c46.93 59.082 117.068 92.97 192.428 92.97 135.412 0 245.576-110.166 245.576-245.578 0-135.416-110.164-245.582-245.576-245.582z m0 475.964c-68.42 0-132.256-29.778-176.21-81.948l64.45-63.462c23.116-22.774 23.404-60.102 0.638-83.216-11.152-11.324-26.044-17.56-41.93-17.56-15.544 0-30.204 6.01-41.288 16.92l-33.548 33.04a235.024 235.024 0 0 1-2.498-34.158c0-127.036 103.354-230.386 230.386-230.386S961.93 193.144 961.93 320.18c0 127.034-103.348 230.384-230.382 230.384z" fill="yellow" /><path d="M731.526 109.712c-116.08 0-210.482 94.404-210.482 210.482 0 8.862 0.558 17.574 1.57 26.134l19.904-19.6a51.052 51.052 0 0 1 35.958-14.738 51.08 51.08 0 0 1 36.516 15.294c19.852 20.156 19.6 52.62-0.558 72.474l-49.582 48.822c38.49 49.936 98.91 82.146 166.674 82.146 116.08 0 210.534-94.454 210.534-210.532 0-116.078-94.454-210.482-210.534-210.482z m13.978 180.45l-56.468-64.318h34.49v-73.74h43.96v73.74h34.49l-56.472 64.318z" fill="transparent" /><path d="M932.17 107.53a302.04 302.04 0 0 0-11.624-10.382l-9.822 11.588a282.444 282.444 0 0 1 11.03 9.858l10.416-11.064z m-189.662 489.694l0.594 15.184c5.168-0.206 10.4-0.548 15.554-1.024l-1.396-15.128c-4.884 0.448-9.85 0.776-14.752 0.968zM908.386 87.38a291.782 291.782 0 0 0-12.666-9.102l-8.536 12.572a278.946 278.946 0 0 1 12.014 8.628l9.188-12.098z m-25.818-17.518a294.69 294.69 0 0 0-13.562-7.706l-7.152 13.408a276.91 276.91 0 0 1 12.868 7.306l7.846-13.008z m-133.724-26.216c4.926 0.302 9.876 0.734 14.714 1.294l1.74-15.094a290.75 290.75 0 0 0-15.534-1.362l-0.92 15.162z m29.358 3.366c4.852 0.82 9.728 1.782 14.5 2.856l3.334-14.822a294.606 294.606 0 0 0-15.302-3.014l-2.532 14.98z m229.946 254.24l15.164-1.018c-0.346-5.132-0.84-10.356-1.468-15.53l-15.084 1.834c0.598 4.904 1.062 9.854 1.388 14.714z m-3.56-29.336l14.966-2.632c-0.9-5.118-1.948-10.26-3.11-15.28l-14.798 3.428a282.024 282.024 0 0 1 2.942 14.484zM800.914 588.692l3.788 14.714a293.95 293.95 0 0 0 14.986-4.286l-4.56-14.492a278.02 278.02 0 0 1-14.214 4.064z m197.006-345.56l14.6-4.214a292.242 292.242 0 0 0-4.728-14.862l-14.352 4.99a275.67 275.67 0 0 1 4.48 14.086z m-9.708-27.912l14.056-5.756a289.404 289.404 0 0 0-6.282-14.238l-13.73 6.498a279.804 279.804 0 0 1 5.956 13.496z m-28.038-51.834l12.512-8.62a306.24 306.24 0 0 0-9.164-12.59l-12.048 9.264a277.814 277.814 0 0 1 8.7 11.946z m-6.48-33.308a293.99 293.99 0 0 0-10.46-11.558l-10.99 10.49a283.23 283.23 0 0 1 9.916 10.96l11.534-9.892z m21.886 58.48l13.364-7.226a287.56 287.56 0 0 0-7.774-13.498l-12.958 7.934a277.272 277.272 0 0 1 7.368 12.79zM771.936 594.512l2.196 15.036c5.118-0.75 10.288-1.644 15.356-2.662l-2.988-14.896c-4.806 0.964-9.708 1.814-14.564 2.522z m219.338-177.04l14.224 5.332a292.966 292.966 0 0 0 5.09-14.768l-14.492-4.564a275.216 275.216 0 0 1-4.822 14zM807.032 53.496c4.678 1.322 9.436 2.804 14.15 4.404l4.886-14.382a291.892 291.892 0 0 0-14.912-4.642l-4.124 14.62z m157.692 416.758l12.76 8.25a287.62 287.62 0 0 0 8.116-13.344l-13.196-7.538a268.128 268.128 0 0 1-7.68 12.632z m14.68-25.668l13.582 6.82c2.32-4.626 4.556-9.38 6.632-14.124l-13.918-6.098a282.82 282.82 0 0 1-6.296 13.402z m44.562-128.788l-15.194 0.248a275.726 275.726 0 0 1-0.158 14.776l15.184 0.574a299.524 299.524 0 0 0 0.168-15.598z m-18.018 44.468l15.036 2.162c0.742-5.156 1.356-10.364 1.82-15.478l-15.134-1.376a288.22 288.22 0 0 1-1.722 14.692z m-5.786 28.968l14.718 3.77a291.436 291.436 0 0 0 3.462-15.204l-14.896-2.972a280.272 280.272 0 0 1-3.284 14.406z m-52.764 104.996l11.82 9.546a290.816 290.816 0 0 0 9.472-12.394l-12.316-8.898a275.488 275.488 0 0 1-8.976 11.746zM835.044 63.056c4.516 1.818 9.086 3.802 13.582 5.894l6.41-13.774a292.38 292.38 0 0 0-14.324-6.214l-5.668 14.094z m21.084 504.906l6.836 13.572a291.024 291.024 0 0 0 13.714-7.37l-7.548-13.186a272.586 272.586 0 0 1-13.002 6.984z m-27.038 11.846l5.342 14.224a295.464 295.464 0 0 0 14.446-5.87l-6.094-13.918c-4.476 1.958-9.08 3.83-13.694 5.564z m52.658-26.502l8.24 12.76a292.86 292.86 0 0 0 12.854-8.792l-8.902-12.31a284.764 284.764 0 0 1-12.192 8.342z m23.922-17.318l9.556 11.816a301.264 301.264 0 0 0 11.856-10.114l-10.168-11.292a277.912 277.912 0 0 1-11.244 9.59z m21.97-19.766l10.742 10.742a294.128 294.128 0 0 0 10.728-11.318l-11.306-10.154a276.962 276.962 0 0 1-10.164 10.73zM450.788 238.85l14.59 4.228c1.36-4.694 2.874-9.434 4.496-14.094l-14.344-5a289.068 289.068 0 0 0-4.742 14.866z m10.288-29.46l14.056 5.772a279.5 279.5 0 0 1 5.984-13.53l-13.73-6.508a294.706 294.706 0 0 0-6.31 14.266z m-17.36 59.86l14.966 2.646c0.856-4.866 1.854-9.744 2.958-14.5l-14.798-3.438a295.554 295.554 0 0 0-3.126 15.292z m10.786 46.752l-15.194-0.212a297.462 297.462 0 0 0 0.182 15.582l15.184-0.574a283.976 283.976 0 0 1-0.172-14.796z m-14.546-15.8l15.154 1.034c0.336-4.864 0.802-9.82 1.394-14.73l-15.084-1.82a299.61 299.61 0 0 0-1.464 15.516z m34.498-118.998l13.354 7.246a279.948 279.948 0 0 1 7.394-12.812l-12.958-7.938a294.67 294.67 0 0 0-7.79 13.504z m120.02-119.144a288.932 288.932 0 0 0-13.562 7.688l7.844 13.012a274.506 274.506 0 0 1 12.85-7.288l-7.132-13.412zM555.12 87.24l9.18 12.108a282.142 282.142 0 0 1 12.014-8.62l-8.536-12.572a298.974 298.974 0 0 0-12.658 9.084z m-45.334 42.676l11.524 9.896a281.656 281.656 0 0 1 9.932-10.964l-11-10.484a303.856 303.856 0 0 0-10.456 11.552z m-19.026 24.708l12.512 8.616a274.066 274.066 0 0 1 8.71-11.95l-12.038-9.274a299.156 299.156 0 0 0-9.184 12.608z m40.56-47.25l10.416 11.064a278.126 278.126 0 0 1 11.03-9.848l-9.812-11.598a296.5 296.5 0 0 0-11.634 10.382zM822.684 250.41v15.194h16.756l-37.866 117.918h-105.712l-43.216-128.082h-63.96c-10.594 0-19.21 8.618-19.21 19.21v1.674c0 10.592 8.616 19.21 19.21 19.21 10.594 0 19.214-8.618 19.214-19.21v-5.69h33.834l43.216 128.082h127.702l47.628-148.306h-37.596z m-229.976 25.914a4.02 4.02 0 0 1-8.036 0v-1.674c0-2.214 1.8-4.016 4.016-4.016h4.02v5.69zM794.078 422.37c-15.92 0-28.868 12.95-28.868 28.872 0 15.92 12.948 28.872 28.868 28.872s28.874-12.95 28.874-28.872-12.954-28.872-28.874-28.872z m0 42.548a13.692 13.692 0 0 1-13.676-13.678c0-7.542 6.132-13.678 13.676-13.678s13.68 6.136 13.68 13.678c0 7.542-6.138 13.678-13.68 13.678zM695.152 422.37c-15.92 0-28.874 12.95-28.874 28.872 0 15.92 12.954 28.872 28.874 28.872s28.868-12.95 28.868-28.872-12.948-28.872-28.868-28.872z m0 42.548c-7.542 0-13.68-6.136-13.68-13.678 0-7.542 6.138-13.678 13.68-13.678s13.676 6.136 13.676 13.678c-0.002 7.542-6.134 13.678-13.676 13.678z" fill="yellow" /><path d="M775.076 218.24V144.492h-59.132v73.748h-43.702l73.268 83.448 73.268-83.448h-43.702z m-69.272 15.194h25.332V159.686h28.746v73.748h25.332l-39.706 45.228-39.704-45.228zM649.654 713.424l-10.748-10.796a37.1 37.1 0 0 0-23.018-10.78 47.788 47.788 0 0 0 5.896-22.728c0.098-12.92-4.892-25.1-14.042-34.296l-14.97-15.044c-10.336-10.386-24.284-15.186-38.044-14.228a47.88 47.88 0 0 0 3.224-28.164c-1.77-9.494-6.336-18.158-13.2-25.058l-15.006-15.078a47.804 47.804 0 0 0-3.606-3.262l-0.426-0.324a49.08 49.08 0 0 0-3.294-2.438l-1.028-0.65c-7.314-4.668-14.842-7.3-22.578-7.866l121.41-118.358c11.228-10.946 17.474-25.564 17.592-41.168 0.114-15.602-5.906-30.314-16.958-41.422-22.776-22.882-60.106-23.158-83.224-0.626l-137.48 134.03c0.934-20.02-8.398-38.692-16.46-48.872l-5.228-6.604L176.16 596.92c-12.656 12.332-20.698 28.718-22.702 46.618l-6.816 61.078-5.8 45.984-9.734 68.908L0 939.886l10.278 11.192 135.116-124.06 10.51-74.404 5.832-46.204 6.874-61.662c1.562-13.938 8.012-27.058 18.156-36.948l189.722-184.96c7.102 12.346 17.414 38.402-5.026 60.294l-0.01 0.012 10.604 10.88 166.186-162.014c17.182-16.75 44.932-16.542 61.848 0.462 8.17 8.21 12.622 19.074 12.538 30.588-0.09 11.516-4.708 22.316-13.002 30.404l-139.986 136.466a16.324 16.324 0 0 0-1.222 1.206l10.796 10.58a7.536 7.536 0 0 1-0.812 0.52c0.258-0.13 0.544-0.222 0.822-0.326 0.584-0.22 1.158-0.442 2.018-0.836 11.376-5.096 21.54-4.36 31.984 2.308l0.698 0.436c0.772 0.52 1.518 1.074 2.576 1.906 0.856 0.708 1.692 1.45 2.488 2.248l14.996 15.07a32.712 32.712 0 0 1 9.036 17.138 32.822 32.822 0 0 1-9.402 29.63l-13.442 13.284 10.318 10.604 5.426-4.748c13.354-11.69 33.602-11.01 46.086 1.54l14.97 15.046c6.272 6.298 9.684 14.632 9.62 23.462-0.07 8.836-3.61 17.12-9.976 23.328l-10.11 9.854c-0.02 0.014-0.034 0.032-0.05 0.046l10.604 10.88 0.01-0.01c8.63-8.406 22.562-8.302 31.064 0.242l10.748 10.796a21.328 21.328 0 0 1 6.282 15.314c-0.044 5.768-2.36 11.172-6.514 15.224l-176.24 171.81-106.048 31.988-22.682 27.336 11.692 9.704 19.764-23.814 105.218-31.74 178.9-174.402c7.082-6.904 11.024-16.134 11.104-25.988 0.07-9.846-3.734-19.13-10.708-26.144z" fill="yellow" /><path d="M616.584 724.738a5.614 5.614 0 0 0-2.584-1.556l-35.58-35.768 6.69-6.52a16.676 16.676 0 0 0 5.118-12.642c-0.1-3.062-1.014-7.524-4.916-11.438l-15.002-15.05c-6.386-6.42-16.674-6.772-23.518-0.802-9.528 8.378-24.024 7.876-32.944-1.104a23.654 23.654 0 0 1-3.498-4.464c-5.728-9.432-4.206-21.37 3.65-29.096l8.11-7.926c4.664-4.516 5.22-9.834 5.118-12.642 0-0.852-0.1-1.754-0.304-2.608-0.608-3.362-2.18-6.32-4.612-8.83l-15.002-15.05c-0.304-0.302-0.608-0.552-0.912-0.854-0.102-0.1-1.166-0.904-1.42-1.054l-0.81-0.55c-1.622-1.054-3.75-1.656-6.182-1.806-4.916-0.352-11.962-1.856-17.386-7.324l-3.192-3.36c-12.062-12.542-11.708-32.658 0.71-44.848l119.612-117.036c3.7-3.612 6.336-7.876 7.552-12.292 2.636-9.532 0.05-19.414-6.842-26.336-5.17-5.166-12.012-8.026-19.31-8.126a27.278 27.278 0 0 0-19.362 7.826l-146.576 142.822c-8.92 8.73-23.364 8.628-32.134-0.2a32.276 32.276 0 0 0-22.858-9.582c-8.666-0.05-16.826 3.21-23.01 9.23L198.244 619.24a45.35 45.35 0 0 0-13.38 27.29l-6.892 61.654-4.41 35.016-10.34 85.834-145.844 134.604v27.026h289.532l37.05-44.898 109.83-33.512 161.984-157.922c8.31-8.074 8.666-21.066 0.81-29.594z" fill="yellow" /><path d="M285.41 567.034l93.66-91.346 10.612 10.88-93.662 91.344zM647.192 255.452h26.682v15.194h-26.682z" fill="yellow" /></svg>